<svg xmlns="http://www.w3.org/2000/svg" xmlns:xlink="http://www.w3.org/1999/xlink" viewBox="0 0 203.22 211.61"><defs><style>.cls-1,.cls-10,.cls-11,.cls-7{stroke:#fff;}.cls-1,.cls-10,.cls-11,.cls-12,.cls-13,.cls-14,.cls-15,.cls-16,.cls-17,.cls-18,.cls-19,.cls-2,.cls-20,.cls-21,.cls-22,.cls-3,.cls-4,.cls-5,.cls-6,.cls-7,.cls-8,.cls-9{stroke-miterlimit:10;stroke-width:2px;}.cls-1{fill:url(#linear-gradient);}.cls-12,.cls-13,.cls-14,.cls-15,.cls-16,.cls-17,.cls-18,.cls-19,.cls-2,.cls-20,.cls-21,.cls-22,.cls-3,.cls-4,.cls-5,.cls-6,.cls-8,.cls-9{stroke:#f7f7f7;}.cls-2{fill:url(#linear-gradient-2);}.cls-3{fill:url(#linear-gradient-3);}.cls-4{fill:url(#linear-gradient-4);}.cls-5{fill:url(#linear-gradient-5);}.cls-6{fill:url(#linear-gradient-6);}.cls-7{fill:url(#linear-gradient-7);}.cls-8{fill:url(#linear-gradient-8);}.cls-9{fill:url(#linear-gradient-9);}.cls-10{fill:url(#linear-gradient-10);}.cls-11{fill:url(#linear-gradient-11);}.cls-12{fill:url(#linear-gradient-12);}.cls-13{fill:url(#linear-gradient-13);}.cls-14{fill:url(#linear-gradient-14);}.cls-15{fill:url(#linear-gradient-15);}.cls-16{fill:url(#linear-gradient-16);}.cls-17{fill:url(#linear-gradient-17);}.cls-18{fill:url(#linear-gradient-18);}.cls-19{fill:url(#linear-gradient-19);}.cls-20{fill:url(#linear-gradient-20);}.cls-21{fill:url(#linear-gradient-21);}.cls-22{fill:url(#linear-gradient-22);}</style><linearGradient id="linear-gradient" x1="6.78" y1="148.09" x2="104.12" y2="148.09" gradientUnits="userSpaceOnUse"><stop offset="0.17" stop-color="#a46565"/><stop offset="0.31" stop-color="#a66969"/><stop offset="0.44" stop-color="#ad7575"/><stop offset="0.57" stop-color="#b98989"/><stop offset="0.71" stop-color="#c9a4a4"/><stop offset="0.84" stop-color="#dfc8c8"/><stop offset="0.97" stop-color="#f8f3f3"/><stop offset="1" stop-color="#fff"/></linearGradient><linearGradient id="linear-gradient-2" x1="14.87" y1="86.63" x2="82.85" y2="86.63" xlink:href="#linear-gradient"/><linearGradient id="linear-gradient-3" x1="46.79" y1="38.22" x2="68.29" y2="38.22" xlink:href="#linear-gradient"/><linearGradient id="linear-gradient-4" x1="21.75" y1="74.03" x2="75.72" y2="74.03" xlink:href="#linear-gradient"/><linearGradient id="linear-gradient-5" x1="58.53" y1="53.51" x2="105.17" y2="53.51" xlink:href="#linear-gradient"/><linearGradient id="linear-gradient-6" x1="150.79" y1="61.22" x2="174.24" y2="61.22" xlink:href="#linear-gradient"/><linearGradient id="linear-gradient-7" x1="102.96" y1="175.97" x2="175.47" y2="175.97" xlink:href="#linear-gradient"/><linearGradient id="linear-gradient-8" x1="115.56" y1="89.88" x2="178.22" y2="89.88" xlink:href="#linear-gradient"/><linearGradient id="linear-gradient-9" x1="110.92" y1="75.73" x2="149.15" y2="75.73" xlink:href="#linear-gradient"/><linearGradient id="linear-gradient-10" x1="106.98" y1="138.74" x2="180.26" y2="138.74" xlink:href="#linear-gradient"/><linearGradient id="linear-gradient-11" x1="74.38" y1="149.63" x2="170.71" y2="149.63" xlink:href="#linear-gradient"/><linearGradient id="linear-gradient-12" x1="120.66" y1="95.28" x2="142.78" y2="95.28" xlink:href="#linear-gradient"/><linearGradient id="linear-gradient-13" x1="147.67" y1="120.18" x2="200.2" y2="120.18" xlink:href="#linear-gradient"/><linearGradient id="linear-gradient-14" x1="133.26" y1="119.78" x2="181.9" y2="119.78" xlink:href="#linear-gradient"/><linearGradient id="linear-gradient-15" x1="94.2" y1="43.17" x2="156.31" y2="43.17" xlink:href="#linear-gradient"/><linearGradient id="linear-gradient-16" x1="74.53" y1="61.17" x2="96.68" y2="61.17" xlink:href="#linear-gradient"/><linearGradient id="linear-gradient-17" x1="110.92" y1="91.04" x2="126.69" y2="91.04" xlink:href="#linear-gradient"/><linearGradient id="linear-gradient-18" x1="79.26" y1="70.56" x2="117.98" y2="70.56" xlink:href="#linear-gradient"/><linearGradient id="linear-gradient-19" x1="123.42" y1="106.75" x2="155.18" y2="106.75" xlink:href="#linear-gradient"/><linearGradient id="linear-gradient-20" x1="82.85" y1="110.52" x2="145.01" y2="110.52" xlink:href="#linear-gradient"/><linearGradient id="linear-gradient-21" x1="67.34" y1="105.57" x2="109.51" y2="105.57" xlink:href="#linear-gradient"/><linearGradient id="linear-gradient-22" x1="110.56" y1="52.62" x2="144.6" y2="52.62" xlink:href="#linear-gradient"/></defs><g id="Layer_2" data-name="Layer 2"><path class="cls-1" d="M38.62,102.53s-14.13,7-16,6.3-2.72-1.7-3.74.85-2.22,3.58-5,6.3-5-.1-5.19,1-2.55.48-1.7,3.72,2.72,8.89,4.43,8.78-1.37,2.45-.51,5,5.27,5.79,5.27,5.79a2.85,2.85,0,0,0-1.28,3.57c.94,2.39,2.64,6.13,5,7.15s4.25,4.09,5.1,6.64,3.41,7.15,5.79,7.15,3.92-2.21,6.3-2.21,2.72.68,2.72.68-.85.68-1.53,3.57-2.55,4.94-1,5.28A19.33,19.33,0,0,1,42.37,174c2.89,1.36,2.21,1.36,4.59,4.43s3.75,7.83,5.62,8.17a24.18,24.18,0,0,0,7.83,0c2.21-.51,1.36-1.06,4.59.32a44.63,44.63,0,0,1,9.53,5.29c2.9,2.22,8.52,1.54,9.71,0s5.44-5.44,6.47-7,1.19-1.88,3.91-2.22,1.49.17,5.08-4.59,4.62-2.9,4.11-8.68.76-6.47.13-9.88S38.62,102.53,38.62,102.53Z"/><path class="cls-2" d="M35.22,44.49s-8.34-1.7-11.24,0-6,6.13-6.81,9-2.72,5.79-2.21,9,2.89,10.73,3.92,15.15.68,7.32,3.91,11.41,9.87,10.2,11.06,13.44a18.42,18.42,0,0,0,5.11,8c3.06,3.08,8.65,9.37,9.77,9.54s-.24,2.9,4.19,4.6,6.81,3.4,13.1,3.92,10.56,1.87,11.92,0,4.72-3.75,4.91-6S35.22,44.49,35.22,44.49Z"/><path class="cls-3" d="M46.79,41.94a37.86,37.86,0,0,0,6.47-8c1.61-2.7,2-4.14,3.74-5.28,2.53-1.64,6.54-1.75,8.68,0,4.49,3.62,3.26,17.24-4.25,19.94C56.87,50.21,50.63,47.59,46.79,41.94Z"/><path class="cls-4" d="M62.28,54.36s-4.94-7.83-8.68-10-6.81-7.66-13.45-9.19-10.89-4.94-13.44-3.92-5.79,2.73-4.77,4.6a51.59,51.59,0,0,0,7.66,9.36C32.66,48.06,38.77,61,42,65.26S51.73,79.51,55,82.6,60.75,94,61.09,96.41s.17,5.37,4.42,10.34a111.47,111.47,0,0,0,10,10.25C77.43,118.7,62.28,54.36,62.28,54.36Z"/><path class="cls-5" d="M105.17,25.16s-5.76-14.71-8.49-14.54-8.49,6.54-8.26,7.27-.61.12-2.14,0a3.65,3.65,0,0,0-2.72,1.41l-4.3-.85S76.39,22,74.53,22.7s-2.72-.68-5.78.68-4.94,1.54-5.11,4.43A60,60,0,0,1,61.26,40c-1.19,3.66-2.55,5.79-2.55,12.64s-.86,11.67,1.19,17.94,1.24,10.19,5.27,15.8a116.43,116.43,0,0,0,8.17,10Z"/><path class="cls-6" d="M152,46.7s5.11,1,6.3,2.22,7.66.51,8.17,2.38,3.06,4.08,4.26,8.17,5.24,5.31,2.72,9-3.58,6.64-6.13,7.24-16.51-29-16.51-29"/><path class="cls-7" d="M171.73,151.21s1.28,4.6,2.51,16.17,2,17.2,0,22.3-4.22,12.09-8.3,12.26-13.22,1.19-18.27,2-11.35,2.89-14.41,0S120.49,198.3,120,193.65s-.1-3.29-2-7.88-6.68-3.75-8.47-10.39,0-2.87-3-9.53A41.89,41.89,0,0,1,103,148.09c0-4.88,15.49,2.84,25.19,2.39S171.73,151.21,171.73,151.21Z"/><path class="cls-8" d="M140.41,127.14a72.83,72.83,0,0,0,12.42-3.84c4.77-2.21,8.51-4.43,9.88-6.3s5.1-3.48,8.51-10.25,7.32-16,7-19,.51-8.68-1.88-11.06-5.78-4.19-6.81-6.1.34-2.58-1.7-6.33-3.57-5.78-7.83-6-8-5.53-10.83-5.66-33.59,40.56-33.59,40.56Z"/><path class="cls-9" d="M126.69,76.15s-3.66-.17-1.44,1.7,4.09,4.94,5.29,3.24,0-5.62,0-5.62-3.11-2.72-3.85-2.72-1.43-1.8-3.81-1.16a37.8,37.8,0,0,0-4.08,1.33l1.86-4.77-1-5.79s-.76-4.17-3.23-4.08-5.49,7-5.49,7,1.91,11.91,4.13,14.29,6.42,4.94,11.64,6.81,6.74,3.92,8.78,3.41a7.94,7.94,0,0,0,2.44-1.34c1.85-1.39,3.59-3.42,2.67-4.11-1.36-1-2.38-6-4.43-8s-3.57-5.22-5.1-5.76a76.69,76.69,0,0,0-7.63-1.39s-2.59-2.55-1-2.89,4.29.85,3.51-1.87-5-2.6-3.17-4.77,11.23,5.28,14.12,7.66,8.34,5.79,9,9.36,3.75,7.49,3.24,10.55-.34,5.79-2.55,6-9.54-3.91-9.88-4.76-4.59-2.9-3.57-7.32-.34-9.71-2.21-12.09-10.39-10-11.24-10.72"/><path class="cls-10" d="M171.9,125.68s11.57,9.6,7.49,10.5-11.61,7.25-18.92,7-13.58-10.32-13.58-10.32.69,6.88,0,10.33-4.27,11.86-9.21,7.32-18.87-8.42-18.88-11.74-3.36,3.45-8.24,3.62-4.79-13.93.36-15.22S171.9,125.68,171.9,125.68Z"/><path class="cls-11" d="M75.72,130.28s-2.9,3.06-.17,7.66,2.62,14.93,14,16.68,21.28,4.25,25.2,6,4.59,3.4,8,3.4,4.76-.85,6.8,0,2.39,3.4,5.45,2.55a28,28,0,0,0,7.82-3.74c2.05-1.36,4.95,1.19,7.16,2.72s5.08,2.21,6.37,4.26,5.89,7.49,9.29,8.85,2.89-1,2.89-1.87-1.64-2.22,0-2.22,2.19-.68,2.19-2-1.54-6-3.75-9.53a29.77,29.77,0,0,0-10.65-10c-5.18-3.07-4-4.38-8.41-4.83s-33.37-8.51-35.92-9.66-26-18-27.4-18.2S75.72,130.28,75.72,130.28Z"/><path class="cls-12" d="M120.66,83.64a2.36,2.36,0,0,1,2.76-1.87c2.35.34,3.71,1.7,6.43,3.4s5.62,3.58,7.66,4.09,6.13,2,5.11,5.78-18.82,13.45-19.2,13.79S120.66,83.64,120.66,83.64Z"/><path class="cls-13" d="M179.22,89.88s7.15.62,8.68,2.21,8.51,5,8.51,7.21.34,5.88,0,7.45-2.21,3.1-1,5.14,2.21,4.94,3.57,6.47,1,2.9,1.19,8,0,7.15-2.38,8.85-2.72,2.73-6.64,5.62-14.47,9.09-19.4,8.8-8.73,1.28-14.15.73-9-.1-9.85-.73,8.17-3.86,11.06-5.4,7.49-6.22,10.72-8,8.05-3.33,8.71-9,6.36-10,3.68-13.19-9.86-9.56-9.66-11.42S179.22,89.88,179.22,89.88Z"/><path class="cls-14" d="M171.56,100.15s6.29,3.5,7.49,6.6,3.4,8.55,2.72,11.78-.72,6-5,7.15-11,5.79-12.83,7.83-4.45,4.23-7.59,4.92-7.52,1.82-11.71,0-11.17-4.07-11.34-5.6S171.56,100.15,171.56,100.15Z"/><path class="cls-15" d="M94.2,45.72s.89-8.8,2.17-9.7,2.46-2.42,3.33-2.93-.87-3.71,0-3.71,1.77.9,2.28,1,3.19-5.24,3.7-4.35.39,2.43,1.15,3.07,1.79-.77,4.73-1.92a41.1,41.1,0,0,1,11-2c1.53.13,7.66.64,8.8,1.53s5.49,2.56,6.39,4,2.55,4.59,3.83,4.78,4.08-.45,5.49,0,2.8-.82,5.36,5.05a36.73,36.73,0,0,1,2.93,13.4c0,1.79,2.81,2.94-1.14,3.07s-12.39.13-12.77,0,0-5.62-.64-7.28-2.3-2.68-6.38-5-13.21-.89-15.61-.64-6.48.64-8.65,2.17-6.25,3.71-6.51,6.13-1.36,8.56-3.94,8.81S94.2,45.72,94.2,45.72Z"/><path class="cls-16" d="M96.62,58.75s.13-8.81,0-11.62-.25-5.87-1.28-5.87-2.42,2-5.74,5.23-8.3,8.81-9.32,10.09-1.4,3.7-2.81,6.63-3.06,3.2-2.93,5.37,2.3,3.72,4.72,6.63,7.28,5.88,7.28,5.88Z"/><path class="cls-17" d="M118.71,79.55s5.87,6,6.38,7.79,1.91,9.07,1.53,10.47-1.53,4.72-1.53,4.72l-14.17-6.38Z"/><path class="cls-18" d="M113.93,92.19s.82.39,2-2.42,2.3-8,2-10-.64-5.59-1-8.22-.91-5.44-2.37-7.36a10.05,10.05,0,0,0-2.1-2.29s1.81-2.17,1.48-3.58-.33-4.34-1.48-6-3.7-3.44-5.11-3.44-5.49,2.29-7.14,3.83-5.11,2.55-6,4.34-3.32,4.72-3.58,6.63.89,5.13-.89,6.84-4,5.93-5.75,6.7-3.89,1-4.18,2.81-.41,4.72-.54,5.87S113.93,92.19,113.93,92.19Z"/><path class="cls-19" d="M126.69,104.75s5.89-9.37,9.63-10.56,5.79-4.08,7.32-4.08,9.19-1.53,8-1,.85-2.73.85-2.73,3.41,4.94,2.56,6.64,0,8.63-1.71,12.57-3.06,8.37-5.78,11.09-1.71,4.09-5.28,6.47-15.83,6.81-18.21,1.53S126.69,104.75,126.69,104.75Z"/><path class="cls-20" d="M108.24,135.85c13.66-1.09,20,0,23.23,1.41,1,.44,4.79,2,7.65.6a3.74,3.74,0,0,0,1.29-1.24c2.6-3.68,4.48-5.23,4.59-7.28.15-2.66-2.29-3-4.95-8-2.1-4-.89-4.36-2.71-7.4-2-3.3-3.13-2.45-9.23-8.38-3.09-3-3.45-3.85-5.32-4.57s-3.41-.68-5.28-2.22a4.8,4.8,0,0,1-1.87-2.12c-2.3-3.83-5.36-5.36-6.13-6.38s-1-2.3-5.87-4.09-12.82-3.83-15.22-3.57a20.47,20.47,0,0,0-5.57,1.83Z"/><path class="cls-21" d="M109.51,139.55a50,50,0,0,0-1.78-12.76c-.49-1.74-1.77-5.08-4.34-11.75-1.49-3.84-2.09-5.26-2.8-6.8a56.9,56.9,0,0,0-4.1-7.75c-3.79-5.72-5.95-5-10.47-11-2.22-3-1.64-3.05-5.1-7.91C77.63,77,75.64,75.32,74,74.19c-2.55-1.78-4.85-.51-6.38-2.3-.07-.08-.21-.32-.27-.3-.28.11,1.32,4.08,2.06,7.45,1,4.41,0,5.59-.26,14a78.88,78.88,0,0,0,.26,10.46c.48,4.86.89,8.66,3.06,13a22.81,22.81,0,0,0,5.36,7.14,26.91,26.91,0,0,0,5,3.12c4.07,2.24,5.88,2.92,11.39,5.57,4.41,2.12,4.77,2.42,8.48,4.13C105.43,137.81,107.77,138.82,109.51,139.55Z"/><path class="cls-22" d="M137,65.26s8.68-10.73,7.53-13-1.17-7.91-3.71-7.65-7,1.4-9.31,1S119.34,40,116.66,40s-4.88,6.51-5.74,8.3.13,7.78,0,9.06,2.81-.25,4.34-.25,7.15-1.54,9.32.38S137,65.26,137,65.26Z"/></g></svg>